{"title":"Pan.2015.BRRip.720p.x264.AAC-PRiSTiNE [P2PDL]","uid":12944970,"size":740200383,"categoryP":"video","categoryS":"hd___movies","magnet":"?xt=urn:btih:9b8ff58cfba0b2cb04824660741389a7ce3d19f0&amp;dn=Pan.2015.BRRip.720p.x264.AAC-PRiSTiNE+%5BP2PDL%5D&amp;tr=udp%3A%2F%2Ftracker.leechers-paradise.org%3A6969&amp;tr=udp%3A%2F%2Fzer0day.ch%3A1337&amp;tr=udp%3A%2F%2Fopen.demonii.com%3A1337&amp;tr=udp%3A%2F%2Ftracker.coppersurfer.tk%3A6969&amp;tr=udp%3A%2F%2Fexodus.desync.com%3A6969","seeders":0,"leechers":1,"uploader":"VYTOP2PDL","files":7,"time":1449668900,"description":"Pan.2015.BRRip.720p.x264.AAC-PRiSTiNE\r\n\r\n\r\nGenre: Adventure, Family, Fantasy \nhttp://www.imdb.com/title/tt3332064/\r\n\r\n\r\nGeneral\r\nFormat                         : MPEG-4\r\nFile size                      : 696 MiB\r\nDuration                       : 1h 51mn\r\nOverall bit rate               : 873 Kbps\r\n\r\nVideo\r\nFormat                         : AVC\r\nBit rate                       : 790 Kbps\r\nWidth                          : 1 280 pixels\r\nHeight                         : 536 pixels\r\nDisplay aspect ratio           : 2.40:1\r\nFrame rate mode                : Constant\r\nFrame rate                     : 23.976 fps\r\nBit depth                      : 8 bits\r\nStream size                    : 630 MiB (90%)\r\nWriting library                : x264\r\n\r\nAudio\r\nID                             : 2\r\nFormat                         : AAC\r\nBit rate mode                  : Variable\r\nBit rate                       : 79.9 Kbps\r\nChannel(s)                     : 2 channels\r\nChannel positions              : Front: L R\r\nSampling rate                  : 48.0 KHz\r\nStream size                    : 63.8 MiB (9%)\r\nLanguage                       : English\r\n\r\nSubtitle                       : Yes (English)\r\n\r\nScreen Shots: (Click to view)\r\n \nhttp://ititli.com/J7 \nhttp://ititli.com/JC \nhttp://ititli.com/JF \nhttp://ititli.com/JJ \nhttp://ititli.com/J5 \nhttp://ititli.com/JB \nhttp://ititli.com/JN \nhttp://ititli.com/JP \nhttp://ititli.com/Jf\r\n\r\n----------------------------------------------------------------------------------------------------\r\n\r\n\r\nEncoder Notes: Looking For Early Access To Anything You Can Provide WEBDL, DVDScr, DVDR, BluRay,\r\nDirect Audio, Music Releases and Seedboxes. If You Got anything to offer please contact us.\r\n\r\nSupport us by donating BC - 1FgwdzPsd1y25Gea8wP1qni35uGCtmkRCD\r\n\r\nSend some love!\r\nFind us and join us!","torrent":{"xt":"urn:btih:9b8ff58cfba0b2cb04824660741389a7ce3d19f0","amp;dn":"Pan.2015.BRRip.720p.x264.AAC-PRiSTiNE+%5BP2PDL%5D","amp;tr":["udp%3A%2F%2Ftracker.leechers-paradise.org%3A6969","udp%3A%2F%2Fzer0day.ch%3A1337","udp%3A%2F%2Fopen.demonii.com%3A1337","udp%3A%2F%2Ftracker.coppersurfer.tk%3A6969","udp%3A%2F%2Fexodus.desync.com%3A6969"],"infoHash":"9b8ff58cfba0b2cb04824660741389a7ce3d19f0","infoHashBuffer":{"type":"Buffer","data":[155,143,245,140,251,160,178,203,4,130,70,96,116,19,137,167,206,61,25,240]},"announce":[],"urlList":[]}}